<?xml version="1.0" encoding="utf-8"?>
<!-- Generator: Adobe Illustrator 17.1.0, SVG Export Plug-In . SVG Version: 6.00 Build 0)  -->
<!DOCTYPE svg PUBLIC "-//W3C//DTD SVG 1.1//EN" "http://www.w3.org/Graphics/SVG/1.1/DTD/svg11.dtd">
<svg version="1.1" id="Layer_2" xmlns="http://www.w3.org/2000/svg" xmlns:xlink="http://www.w3.org/1999/xlink" x="0px" y="0px"
	 viewBox="0 0 152 152" enable-background="new 0 0 152 152" xml:space="preserve">
<linearGradient id="SVGID_1_" gradientUnits="userSpaceOnUse" x1="60.8471" y1="132.8509" x2="96.1804" y2="0.5175">
	<stop  offset="0" style="stop-color:#4291CC"/>
	<stop  offset="1" style="stop-color:#64A7D9"/>
</linearGradient>
<path fill="url(#SVGID_1_)" d="M140.3,104.1c0,0-14,12.5-22.1,9.3c-8.1-3.1-13.5-27.3,14.9-77.3c0,0,1.7-25.4-24.6-21.7l-9.8,90.7
	l-15.1-0.3c-18.5-20.7-0.9-28.6,8.3-28.2c0,0,3.2-31.4-16.1-46.7v-0.2c-8.3-7-20.6-12-38.5-12.1C8.9,19.3,11.6,48.5,11.6,48.5
	s14-12.5,22.1-9.3c8.1,3.1,13.5,27.3-14.9,77.3c0,0-1.7,25.4,24.6,21.7L53,47.4l15.1,0.4C86.5,68.4,69,76.4,59.8,76
	c0,0-3.2,31.4,16.1,46.7v0.1c8.5,7,20.8,12,38.7,12.1C143,133.2,140.3,104.1,140.3,104.1z"/>
</svg>
